<?xml version="1.0" encoding="UTF-8" standalone="no"?>
<!DOCTYPE svg PUBLIC "-//W3C//DTD SVG 1.1//EN" "http://www.w3.org/Graphics/SVG/1.1/DTD/svg11.dtd">
<!-- Created with Vectornator (http://vectornator.io/) -->
<svg height="1024.0pt" stroke-miterlimit="10" style="fill-rule:nonzero;clip-rule:evenodd;stroke-linecap:round;stroke-linejoin:round;" version="1.1" viewBox="0 0 1024 1024" width="1024.0pt" xml:space="preserve" xmlns="http://www.w3.org/2000/svg" xmlns:xlink="http://www.w3.org/1999/xlink">
<defs/>
<g id="Layer-1">
<path d="M655.416 295.246C650.276 298.442 630.552 338.415 630.242 343.293C668.523 403.754 739.313 301.749 752.137 255.129C752.137 255.129 718.634 311.321 688.308 312.396C652.76 313.655 660.565 292.044 655.416 295.246Z" fill="currentColor" fill-rule="evenodd" opacity="1" stroke="none"/>
<path d="M158.133 226.654L136.637 278.303C136.637 278.303 149.804 308.354 171.102 310.269C219.913 314.657 274.237 226.224 289.538 226.654C304.838 227.085 335.873 250.317 352.37 282.74C374.085 242.094 400.516 224.037 444.343 254.16C469.842 271.687 523.146 341.014 555.047 344.43C589.59 348.128 619.269 316.675 633.575 259.166C613.774 283.712 605.713 294.733 585.873 295.985C565.398 297.277 567.198 301.152 495.645 230.099C424.093 159.046 390.341 193.066 369.191 223.209C364.465 218.257 340.531 181.139 311.688 181.439C291.251 181.651 257.205 227.936 236.844 244.741C215.691 262.199 203.008 265.278 195.316 265.363C183.396 265.499 169.032 259.668 158.133 226.654Z" fill="currentColor" fill-rule="evenodd" opacity="1" stroke="none"/>
<path d="M332.813 281.795C278.931 344.531 276.773 346.025 248.45 390.622C220.127 435.218 212.609 464.865 225.902 475.923C239.295 487.065 263.158 487.68 292.392 467.003C333.074 437.171 387.376 394.597 402.283 358.351C406.157 348.93 335.612 412.833 307.302 428.68C290.317 438.187 267.485 440.688 255.221 429.333C230.192 406.161 342.23 291.547 332.813 281.795Z" fill="currentColor" fill-rule="evenodd" opacity="1" stroke="none"/>
<path d="M412.842 377.803C412.73 372.743 440.068 334.095 444.793 332.588C513.35 376.706 477.645 490.196 455.144 500.1C455.144 500.1 459.081 451.44 448.844 420.865C438.606 390.291 412.955 382.872 412.842 377.803Z" fill="currentColor" fill-rule="evenodd" opacity="1" stroke="none"/>
<path d="M769.776 279.243C763.304 252.892 792.716 181.654 830.232 181.654C923.901 181.654 878.414 324.582 860.158 377.373C815.607 487.827 787.378 652.973 785.456 667.182C783.11 684.528 755.123 731.001 769.255 654.263C783.387 577.526 808.778 487.977 839.284 383.486C855.284 328.682 874.744 230.942 820.653 230.798C793.059 230.46 794.624 249.093 769.776 279.243Z" fill="currentColor" fill-rule="evenodd" opacity="1" stroke="none"/>
<path d="M496.621 754.259C480.52 746.556 574.321 536.004 587.31 606.882C593.134 638.658 646.816 549.637 646.816 549.637C646.816 549.637 688.978 476.253 691.047 482.648C700.872 513.024 576.717 709.732 567.9 660.169C558.988 610.078 498.53 755.172 496.621 754.259Z" fill="currentColor" fill-rule="evenodd" opacity="1" stroke="none"/>
<path d="M277.693 842.563C277.693 842.563 276.897 797.497 356.609 701.885C420.861 624.816 495.348 513.706 495.348 513.706C495.348 513.706 483.135 572.316 428.862 639.23C365.513 717.334 277.693 842.563 277.693 842.563Z" fill="currentColor" fill-rule="evenodd" opacity="1" stroke="none"/>
</g>
</svg>
